<svg id="Capa_1" enable-background="new 0 0 512 512" height="512" viewBox="0 0 512 512" width="512" xmlns="http://www.w3.org/2000/svg"><g><path d="m484.432 292.909c18.049-30.002 27.568-64.293 27.568-99.543 0-55.306-23.771-108.077-65.217-144.783-3.102-2.747-7.842-2.46-10.587.642-2.747 3.101-2.459 7.841.642 10.587 38.233 33.861 60.162 82.54 60.162 133.554 0 32.674-8.863 64.449-25.661 92.208-7.815-3.264-16.382-5.075-25.367-5.075-36.408 0-66.029 29.621-66.029 66.029 0 4.724.505 9.354 1.466 13.836-14.087 5.297-28.759 8.759-43.766 10.346.084-.849.128-1.709.128-2.58 0-9.927-5.567-18.578-13.742-22.998 2.681-4.102 4.247-8.997 4.247-14.252 0-1.997-.233-3.939-.659-5.809 68.627-4.628 123.048-61.927 123.048-131.707 0-72.795-59.223-132.018-132.018-132.018-32.03 0-62.922 11.614-86.982 32.704-22.02 19.3-36.95 45.272-42.549 73.742-5.019-.714-10.208.679-14.338 4.078-5.975 4.918-8.28 12.811-5.873 20.107 2.482 7.523 5.83 14.408 10.005 20.602-12.808.405-25.209 4.229-36.044 11.122-1.707-9.978-2.571-20.144-2.571-30.337 0-98.345 80.009-178.354 178.354-178.354 33.709 0 66.537 9.458 94.937 27.352 3.503 2.208 8.135 1.157 10.344-2.348 2.208-3.505 1.157-8.136-2.348-10.344-30.797-19.403-66.39-29.66-102.933-29.66-106.615 0-193.354 86.738-193.354 193.354 0 13.188 1.345 26.333 3.979 39.147l-48.878 31.732c-.757-7.692-7.26-13.722-15.148-13.722h-50.023c-8.395.001-15.225 6.83-15.225 15.225v76.694c0 4.143 3.357 7.5 7.5 7.5s7.5-3.357 7.5-7.5v-76.694c0-.123.101-.224.225-.224h50.022c.123 0 .224.101.224.224v147.851c0 .123-.101.224-.224.224h-50.022c-.124 0-.225-.101-.225-.224v-41.17c0-4.143-3.357-7.5-7.5-7.5s-7.5 3.357-7.5 7.5v41.17c0 8.395 6.83 15.224 15.225 15.224h50.022c7.234 0 13.294-5.076 14.834-11.851l36.644 18.774c.467 33.504 24.156 63.348 58.006 70.668 17.191 3.719 34.497 5.578 51.81 5.577 17.308 0 34.622-1.859 51.809-5.577 36.808-7.96 61.61-42.548 57.593-79.519 6.833-4.717 11.322-12.598 11.322-21.51 0-7.833-3.47-14.866-8.948-19.659 16.419-1.659 32.478-5.391 47.897-11.143 8.114 17.263 23.529 30.676 42.848 35.782 3.998 1.058 8.109-1.33 9.167-5.335 1.059-4.004-1.33-8.108-5.335-9.167-22.345-5.906-37.951-26.191-37.951-49.331 0-28.138 22.892-51.029 51.029-51.029s51.028 22.892 51.028 51.029c0 23.14-15.606 43.425-37.951 49.331-4.005 1.059-6.394 5.163-5.335 9.167.889 3.363 3.925 5.586 7.246 5.586.634 0 1.279-.081 1.921-.251 28.921-7.645 49.119-33.894 49.119-63.834 0-22.066-10.891-41.624-27.568-53.62zm-163.292 123.597h-34.093c-6.135 0-11.125-4.99-11.125-11.125s4.99-11.125 11.125-11.125h34.093c6.135 0 11.125 4.99 11.125 11.125s-4.991 11.125-11.125 11.125zm-41.507-213.377h15.964l.383 3.287c.881 7.887.896 13.006-1.28 18.662-4.584-6.797-12.033-11.509-20.601-12.388 2.045-3.023 3.889-6.213 5.534-9.561zm-21.071 79.377h34.094c6.135 0 11.125 4.99 11.125 11.125s-4.99 11.125-11.125 11.125h-34.094c-6.135 0-11.125-4.99-11.125-11.125s4.991-11.125 11.125-11.125zm-9.494 37.25h53.082c6.135 0 11.125 4.99 11.125 11.125s-4.99 11.125-11.125 11.125h-53.082c-6.135 0-11.125-4.99-11.125-11.125s4.991-11.125 11.125-11.125zm28.484 37.25h34.094c6.135 0 11.125 4.99 11.125 11.125s-4.99 11.125-11.125 11.125h-34.094c-6.135 0-11.125-4.99-11.125-11.125s4.99-11.125 11.125-11.125zm-36.001-251.673c21.325-18.69 48.704-28.984 77.096-28.984 64.523 0 117.018 52.494 117.018 117.018s-52.495 117.016-117.019 117.016c-.104 0-2.768-1.772-4.112-2.499 2.682-4.102 4.247-8.997 4.247-14.253 0-14.405-11.72-26.125-26.125-26.125h-11.822c1.918-.7 3.742-1.583 5.434-2.656l75.913.672h.067c4.111 0 7.462-3.314 7.499-7.434.036-4.142-3.292-7.529-7.434-7.566l-64.313-.569c.274-.801.509-1.617.711-2.446 11.655-15.884 14.167-24.918 12.17-42.789l-.185-1.588h21.121c4.143 0 7.5-3.357 7.5-7.5s-3.357-7.5-7.5-7.5h-24.505c-11.224-16.224-19.065-38.062-1.88-47.768 9.673-5.461 24.747-5.523 33.6-.142 7.003 4.259 12.125 10.116 13.699 15.67 1.131 3.985 5.276 6.294 9.263 5.169 3.984-1.131 6.299-5.277 5.169-9.263-2.62-9.235-10.032-18.127-20.338-24.393-13.438-8.171-34.404-8.215-48.768-.104-22.921 12.943-21.029 37.768-8.346 60.829h-4.709c.657-6.107-1.766-12.196-6.699-16.257-10.357-8.525-21.017-1.721-21.117-1.7-1.75 1.003-3.88.519-4.952-1.133-3.548-5.463-8.091-10.606-13.503-15.287-6.951-6.014-17.435-6.013-24.384-.001-3.168 2.74-6.029 5.642-8.576 8.67 6.021-21.966 18.413-41.865 35.78-57.087zm-57.242 78.122c2.106-1.736 4.016-.28 4.116-.274 8.625 4.955 19.606 2.332 25.001-5.971 2.779-4.279 6.392-8.354 10.737-12.113 1.377-1.191 3.378-1.192 4.757.001 4.345 3.758 7.957 7.833 10.737 12.113 5.393 8.301 16.376 10.923 24.942 6.003.1-.006 2.003-1.544 4.174.241.573.472 1.833 1.788 1.161 3.826-3.303 10.01-8.202 18.302-14.938 25.26h-56.912c-6.735-6.958-11.635-15.25-14.938-25.26-.67-2.038.589-3.355 1.163-3.826zm-3.129 44.086h90.003c7.358 0 13.346 5.987 13.346 13.346 0 6.246-4.432 11.733-10.538 13.047l-124.298 26.741c-4.05.871-6.626 4.86-5.755 8.909.757 3.519 3.866 5.925 7.324 5.925.522 0 1.054-.056 1.585-.17l7.34-1.579c-19.321 35.396-34.896 81.802-42.007 125.874l-37.708-19.319v-118.235l70-45.444c9.163-5.951 19.782-9.095 30.708-9.095zm93.999 264.209c-32.273 6.98-65.001 6.98-97.276 0-30.062-6.502-50.079-35.289-45.568-65.537 7.262-48.708 25.461-100.816 47.666-136.717l58.509-12.587c-3.788 4.534-6.072 10.366-6.072 16.722 0 5.256 1.566 10.151 4.247 14.253-8.175 4.42-13.741 13.07-13.741 22.997 0 14.405 11.72 26.125 26.125 26.125h4.852c-1.597 3.377-2.494 7.148-2.494 11.125 0 9.927 5.567 18.578 13.742 22.998-2.681 4.102-4.247 8.997-4.247 14.252 0 14.405 11.72 26.125 26.125 26.125h34.093c.048 0 .095-.003.143-.004 1.591 28.251-17.8 54.127-46.104 60.248z"/></g></svg>