<svg id="Capa_1" enable-background="new 0 0 512 512" height="512" viewBox="0 0 512 512" width="512" xmlns="http://www.w3.org/2000/svg"><g><path d="m473.187 58.799h-434.374c-21.401 0-38.813 17.412-38.813 38.814v316.775c0 21.402 17.412 38.813 38.813 38.813h66.952c4.164 0 7.54-3.375 7.54-7.54s-3.376-7.54-7.54-7.54h-66.952c-13.087 0-23.734-10.647-23.734-23.734v-316.774c0-13.087 10.647-23.734 23.734-23.734h434.373c13.087 0 23.734 10.647 23.734 23.734v316.775c0 13.087-10.647 23.734-23.734 23.734h-332.227c-4.164 0-7.54 3.375-7.54 7.54s3.376 7.54 7.54 7.54h332.227c21.402 0 38.813-17.412 38.813-38.813v-316.776c.001-21.402-17.411-38.814-38.812-38.814z"/><path d="m409.685 131.942c-4.164 0-7.54 3.375-7.54 7.54 0 15.179-12.349 27.529-27.529 27.529h-154.979c-4.164 0-7.54 3.375-7.54 7.54 0 4.164 3.376 7.54 7.54 7.54h154.979c23.494 0 42.608-19.114 42.608-42.608 0-4.166-3.375-7.541-7.539-7.541z"/><path d="m396.013 102.63c-6.471-3.766-13.871-5.756-21.397-5.756h-237.877c-23.494 0-42.608 19.113-42.608 42.607s19.114 42.608 42.608 42.608h47.204c4.164 0 7.54-3.375 7.54-7.54 0-4.164-3.376-7.54-7.54-7.54h-47.204c-15.179 0-27.529-12.349-27.529-27.529 0-15.178 12.349-27.528 27.529-27.528h237.877c4.865 0 9.641 1.283 13.814 3.71 1.193.694 2.497 1.024 3.785 1.024 2.597 0 5.124-1.343 6.524-3.749 2.094-3.598.873-8.213-2.726-10.307z"/><path d="m146.29 207.086c2.945-2.945 2.945-7.718 0-10.663-2.944-2.943-7.718-2.943-10.662 0l-21.224 21.224c-7.53-6.02-17.066-9.632-27.434-9.632-11.902 0-22.709 4.756-30.64 12.458-2.725-1.111-5.969-.561-8.181 1.65-2.773 2.773-2.933 7.166-.484 10.128-3.009 5.953-4.715 12.671-4.715 19.784 0 24.273 19.747 44.02 44.02 44.02s44.02-19.747 44.02-44.02c0-8.462-2.406-16.37-6.561-23.087zm-42.643 21.318-19.277 19.277-16.957-16.957c5.155-4.734 12.023-7.63 19.557-7.63 6.207 0 11.959 1.97 16.677 5.31zm12.264 23.63c0 15.958-12.983 28.941-28.941 28.941s-28.941-12.983-28.941-28.941c0-2.842.419-5.586 1.185-8.182l19.823 19.824c1.414 1.414 3.331 2.208 5.331 2.208s3.918-.794 5.331-2.208l23.609-23.609c1.667 3.649 2.603 7.7 2.603 11.967z"/><path d="m86.97 309.589c-24.273 0-44.02 19.747-44.02 44.019 0 24.273 19.747 44.02 44.02 44.02s44.02-19.747 44.02-44.02c0-24.271-19.748-44.019-44.02-44.019zm0 72.961c-15.958 0-28.941-12.983-28.941-28.941s12.983-28.94 28.941-28.94 28.941 12.982 28.941 28.94-12.983 28.941-28.941 28.941z"/><path d="m275.762 320.775c-.361.172-2.733 1.342-5.89 3.865-.755-3.368-3.756-5.885-7.352-5.885-4.164 0-7.54 3.375-7.54 7.54v54.629c0 4.164 3.375 7.54 7.54 7.54 4.164 0 7.54-3.375 7.54-7.54v-32.554c0-.271.173-2.824 6.165-9.132 3.177-3.344 5.912-4.791 6.079-4.877 3.71-1.81 5.28-6.274 3.504-10.012-1.788-3.76-6.286-5.357-10.046-3.574z"/><path d="m203.994 391.343c19.219 0 34.855-15.636 34.855-34.855 0-19.218-15.636-34.854-34.855-34.854s-34.854 15.636-34.854 34.854c0 19.219 15.635 34.855 34.854 34.855zm0-54.63c10.904 0 19.775 8.871 19.775 19.775s-8.871 19.776-19.775 19.776-19.775-8.872-19.775-19.776 8.871-19.775 19.775-19.775z"/><path d="m301.258 408.889c6.773 6.823 16.818 9.587 28.332 9.222 20.656-.853 27.478-19.494 27.047-31.921v-57.029c0-4.164-3.375-7.54-7.54-7.54-3.313 0-6.12 2.139-7.132 5.109-4.994-3.227-10.934-5.109-17.31-5.109-17.638 0-31.987 14.35-31.987 31.987 0 17.639 14.35 31.988 31.987 31.988 6.202 0 11.994-1.78 16.902-4.848v5.58c0 .071.003.188.005.258.075 2.659-.181 15.944-12.595 16.458-10.608.431-15.459-3.292-16.343-4.057-3.846-4.275-8.282-2.421-9.164-1.988-3.437 2.078-6.281 7.465-2.006 12.103-.085-.088-.162-.175-.229-.255zm23.398-38.371c-9.323 0-16.908-7.586-16.908-16.909s7.585-16.908 16.908-16.908c9.278 0 16.828 7.512 16.902 16.773v.271c-.074 9.26-7.625 16.773-16.902 16.773z"/><path d="m367.099 383.803c0 3.656 2.964 6.621 6.621 6.621s6.621-2.964 6.621-6.621-2.964-6.62-6.621-6.62-6.621 2.964-6.621 6.62z"/><path d="m202.429 232.538c3.963 0 7.785 1.166 11.051 3.373 3.45 2.33 8.137 1.424 10.469-2.027 2.331-3.45 1.424-8.137-2.027-10.468-5.769-3.897-12.509-5.957-19.493-5.957-19.219 0-34.855 15.636-34.855 34.854 0 19.219 15.636 34.855 34.855 34.855 7.701 0 14.619-2.536 20.006-7.333 1.058-.943 2.061-1.977 2.981-3.075 2.675-3.192 2.256-7.946-.935-10.621-3.193-2.677-7.948-2.257-10.622.936-.451.538-.94 1.043-1.453 1.5-2.618 2.332-5.975 3.515-9.976 3.515-10.904 0-19.775-8.872-19.775-19.776-.001-10.905 8.87-19.776 19.774-19.776z"/><path d="m303.637 252.723c0-19.218-15.636-34.854-34.855-34.854s-34.854 15.636-34.854 34.854 15.635 34.854 34.854 34.854 34.855-15.636 34.855-34.854zm-34.855 19.775c-10.904 0-19.775-8.871-19.775-19.775s8.871-19.775 19.775-19.775 19.776 8.871 19.776 19.775-8.872 19.775-19.776 19.775z"/><path d="m386.247 251.685v27.943c0 4.164 3.375 7.54 7.54 7.54 4.164 0 7.54-3.375 7.54-7.54v-27.777c.554-12.812-1.672-21.379-7.001-26.953-4.199-4.392-10.128-6.619-17.627-6.619-7.407 0-13.592 2.492-18.088 6.946-4.784-5.625-11.294-7.229-17.141-7.229-4.782 0-9.129 1.223-12.881 3.448-1.208-2.551-3.799-4.32-6.81-4.32-4.164 0-7.54 3.375-7.54 7.54v54.964c0 4.164 3.375 7.54 7.54 7.54 4.164 0 7.54-3.375 7.54-7.54v-30.288c0-9.747 5.646-16.264 12.152-16.264s9.039 4.107 9.022 15.506c-.001.512.017 31.046.017 31.046 0 4.164 3.375 7.54 7.54 7.54 4.164 0 7.54-3.375 7.54-7.54l.015-32.126c.002-9.385 5.043-14.144 11.096-14.144s9.556 2.029 9.556 17.987c-.002.114-.01.227-.01.34z"/><path d="m418.681 286.658c3.656 0 6.62-2.964 6.62-6.62s-2.964-6.621-6.62-6.621-6.621 2.964-6.621 6.621c0 3.656 2.964 6.62 6.621 6.62z"/></g></svg>