<svg height="511pt" viewBox="-72 0 511 511.998" width="511pt" xmlns="http://www.w3.org/2000/svg"><path d="m185.441406 57.839844c4.140625 0 7.5-3.355469 7.5-7.5v-42.839844c0-4.140625-3.359375-7.5-7.5-7.5-4.144531 0-7.503906 3.359375-7.503906 7.5v42.839844c0 4.144531 3.359375 7.5 7.503906 7.5zm0 0"/><path d="m43.59375 112.453125c2.929688-2.929687 2.929688-7.679687 0-10.605469l-30.289062-30.296875c-2.929688-2.925781-7.679688-2.925781-10.609376 0-2.929687 2.929688-2.929687 7.679688 0 10.609375l30.292969 30.292969c2.929688 2.929687 7.679688 2.929687 10.605469 0zm0 0"/><path d="m365.253906 78.625c-2.929687-2.929688-7.679687-2.929688-10.609375 0l-30.292969 30.292969c-2.925781 2.929687-2.925781 7.679687 0 10.605469 2.929688 2.929687 7.679688 2.929687 10.609376 0l30.292968-30.292969c2.929688-2.925781 2.929688-7.675781 0-10.605469zm0 0"/><path d="m283.121094 102.164062c-3.285156-2.523437-7.996094-1.910156-10.519532 1.375-2.523437 3.285157-1.910156 7.996094 1.375 10.519532 14.464844 11.117187 26.566407 24.417968 35.996094 39.269531-16.789062 8.886719-40.496094 15.730469-67.796875 19.839844-4.410156-27.6875-13.707031-65.300781-30.605469-87.570313 13.617188 2.730469 26.765626 7.339844 39.324219 13.800782 3.683594 1.898437 8.207031.449218 10.101563-3.234376 1.894531-3.683593.445312-8.207031-3.238282-10.101562-61.300781-31.550781-140.222656-23.152344-193.691406 29.574219-74.605468 73.578125-63.867187 198.097656 23.996094 257.457031 9.40625 6.355469 15.023438 16.984375 15.023438 28.433594 0 6.675781 2.773437 12.71875 7.230468 17.027344-9.722656 10.308593-6.664062 21.972656-7.230468 26.421874 0 35.953126 28.117187 65.386719 64.011718 67.011719 4.136719.1875 7.644532-3.015625 7.832032-7.152343.191406-4.136719-3.015626-7.644532-7.152344-7.832032-21.59375-.980468-39.558594-14.925781-46.550782-34.144531 39.925782 7.648437 79.535157 7.832031 120.425782 0-6.992188 19.21875-24.957032 33.164063-46.550782 34.144531-4.136718.1875-7.339843 3.695313-7.152343 7.832032.179687 4.023437 3.5 7.160156 7.484375 7.160156.117187 0 .230468 0 .347656-.007813 35.894531-1.625 64.011719-31.0625 64.011719-67.011719-.566407-4.453124 2.503906-16.101562-7.230469-26.421874 4.453125-4.308594 7.230469-10.351563 7.230469-17.027344 0-11.414063 5.742187-22.132813 15.363281-28.664063 93.371094-63.414062 99.082031-200.65625 7.964844-270.699219zm-55.820313 72.929688c-29.851562 3.269531-61.863281 3.269531-91.722656 0 2.789063-17.398438 6.625-33.402344 11.410156-47.351562 9.6875-28.242188 22.566407-45.105469 34.449219-45.105469.105469.074219 18.324219-1.910157 34.453125 45.105469 4.785156 13.949218 8.617187 29.953124 11.410156 47.351562zm3.460938 114.894531c-31.6875 3.746094-66.941407 3.746094-98.644531 0-2.902344-31.941406-2.609376-67.308593 1.375-100.066406 31.300781 3.5 64.570312 3.503906 95.894531 0 3.980469 32.75 4.277343 68.121094 1.375 100.066406zm-49.324219 120.242188c-11.882812 0-24.761719-16.863281-34.449219-45.105469-5.910156-17.230469-10.375-37.609375-13.207031-59.867188 30.960938 3.394532 64.46875 3.382813 95.316406 0-2.835937 22.257813-7.296875 42.636719-13.207031 59.867188-9.6875 28.242188-22.566406 45.105469-34.453125 45.105469zm-30.078125-324.707031c-16.925781 22.25-26.238281 59.902343-30.65625 87.644531-27.472656-4.136719-51.300781-11.035157-68.105469-20 21.695313-34.605469 56.984375-59.492188 98.761719-67.644531zm-106.082031 80.726562c18.324218 9.777344 43.996094 17.277344 73.347656 21.71875-3.949219 32.339844-4.460938 67.390625-1.746094 99.894531-49.90625-8.089843-82.679687-24.90625-86.960937-41.148437-2.128907-26.941406 2.761719-55.035156 15.359375-80.464844zm51.183594 194.414062c-31.042969-20.972656-52.761719-52.054687-62.015626-87.246093 20.023438 17.292969 58.15625 25.949219 83.984376 29.84375 3.882812 32.871093 13.996093 81.886719 35.246093 106.96875h-26.886719c-4.796874 0-8.703124-3.902344-8.703124-8.703125 0-16.4375-8.082032-31.714844-21.625-40.863282zm21.664062 86.273438c-.0625-1.675781-.027344-2.324219-.039062-10.203125 0-6.34375 5.160156-11.503906 11.503906-11.503906h103.699218c6.339844 0 11.5 5.160156 11.5 11.503906-.007812 8.191406.027344 8.542969-.035156 10.203125-42.546875 8.960938-84.082031 8.957031-126.628906 0zm148.601562-86.484375c-13.734374 9.328125-21.9375 24.6875-21.9375 41.078125 0 4.796875-3.902343 8.699219-8.699218 8.699219h-26.886719c21.273437-25.113281 31.371094-74.175781 35.246094-106.96875 26.433593-3.988281 62.453125-12.527344 83.679687-28.785157-9.40625 34.636719-30.921875 65.277344-61.402344 85.976563zm66.230469-113.730469c-4.292969 16.238282-37.0625 33.050782-86.960937 41.140625 2.714844-32.46875 2.207031-67.519531-1.746094-99.894531 29.230469-4.421875 54.8125-11.878906 73.117188-21.59375 12.59375 25.050781 17.769531 52.945312 15.589843 80.347656zm0 0"/></svg>