<svg id="Capa_1" enable-background="new 0 0 512 512" height="512" viewBox="0 0 512 512" width="512" xmlns="http://www.w3.org/2000/svg"><g><path d="m256 215.74c-4.142 0-7.5 3.357-7.5 7.5v65.465c0 3.652 2.631 6.774 6.231 7.392.538.092.974.167 8.2.167 3.499 0 8.59-.018 16.054-.059 4.142-.023 7.481-3.4 7.458-7.542-.023-4.128-3.376-7.458-7.499-7.458-.014 0-.029 0-.043 0-5.331.03-11.057.051-15.401.055v-58.02c0-4.142-3.358-7.5-7.5-7.5z"/><path d="m315.986 288.76v-65.52c0-4.143-3.358-7.5-7.5-7.5s-7.5 3.357-7.5 7.5v65.52c0 4.143 3.358 7.5 7.5 7.5s7.5-3.358 7.5-7.5z"/><path d="m438.972 231.039c4.142 0 7.5-3.358 7.5-7.5s-3.358-7.5-7.5-7.5h-27.355c-4.142 0-7.5 3.358-7.5 7.5v64.922c0 4.142 3.358 7.5 7.5 7.5h27.355c4.142 0 7.5-3.358 7.5-7.5s-3.358-7.5-7.5-7.5h-19.855v-17.461h17.838c4.142 0 7.5-3.358 7.5-7.5s-3.358-7.5-7.5-7.5h-17.838v-17.461z"/><path d="m361.648 296.26h.061c3.818-.026 7.209-2.472 8.457-6.138l21.393-64.397c1.306-3.931-.822-8.176-4.753-9.481-3.932-1.307-8.176.822-9.482 4.753l-15.801 47.563-16.584-47.779c-1.359-3.914-5.633-5.985-9.545-4.626-3.913 1.358-5.984 5.631-4.626 9.544l22.419 64.589c1.273 3.579 4.667 5.972 8.461 5.972z"/><path d="m424.339 168.339h-208.42c-4.142 0-7.5 3.357-7.5 7.5 0 4.142 3.358 7.5 7.5 7.5h208.419c40.066 0 72.662 32.596 72.662 72.661s-32.596 72.661-72.661 72.661h-246.745c18.414-18.725 29.794-44.387 29.794-72.661 0-57.177-46.517-103.693-103.694-103.693s-103.694 46.516-103.694 103.693 46.517 103.693 103.693 103.693c20.328 0 39.305-5.884 55.327-16.032h265.319c48.336 0 87.661-39.324 87.661-87.661s-39.325-87.661-87.661-87.661zm-409.339 87.661c0-48.906 39.788-88.693 88.693-88.693s88.694 39.788 88.694 88.693-39.788 88.693-88.694 88.693-88.693-39.787-88.693-88.693z"/><path d="m150.606 243.841-63.741-31.871c-4.906-2.453-10.62-2.196-15.285.688-4.666 2.883-7.451 7.879-7.451 13.363v63.741c0 5.484 2.785 10.48 7.451 13.364 4.674 2.889 10.39 3.136 15.286.688l8.35-4.175c3.705-1.852 5.206-6.357 3.354-10.062s-6.355-5.207-10.062-3.354l-8.349 4.175c-.106.053-.353.177-.691-.031-.336-.208-.336-.485-.336-.604v-63.741c0-.118 0-.396.337-.604.336-.208.584-.084.691-.031l63.741 31.871c.137.069.393.196.393.635s-.255.566-.393.635l-27.012 13.506c-3.705 1.853-5.207 6.358-3.354 10.062 1.853 3.705 6.356 5.207 10.062 3.354l27.012-13.507c5.357-2.678 8.685-8.062 8.685-14.051s-3.331-11.372-8.688-14.051z"/></g></svg>