<svg id="Capa_1" enable-background="new 0 0 512 512" height="512" viewBox="0 0 512 512" width="512" xmlns="http://www.w3.org/2000/svg"><path d="m507.972 248.308-39.001-35.942c-3.649-3.363-8.941-4.249-13.489-2.255-4.545 1.992-7.481 6.486-7.481 11.448v8.441h-15.562v-69.521h2.5c6.893 0 12.5-5.607 12.5-12.5v-20c0-6.893-5.607-12.5-12.5-12.5h-20c-5.027 0-9.36 2.99-11.342 7.279l-125.097-40.833v-9.454c0-6.893-5.607-12.5-12.5-12.5h-20c-6.893 0-12.5 5.607-12.5 12.5v9.455l-46.827 15.284c-3.938 1.285-6.088 5.52-4.803 9.457 1.033 3.165 3.971 5.175 7.129 5.175.771 0 1.556-.12 2.328-.372l43.178-14.094c1.911 4.461 6.343 7.595 11.495 7.595h2.5v66.016h-2.5c-4.921 0-9.174 2.865-11.212 7.009l-124.071-40.214 47.659-15.556c3.938-1.285 6.088-5.52 4.803-9.457s-5.518-6.089-9.457-4.803l-45.318 14.792c-1.983-4.289-6.315-7.279-11.342-7.279h-20c-6.893 0-12.5 5.607-12.5 12.5v20c0 6.893 5.607 12.5 12.5 12.5h2.5v68.521h-15.562v-7.441c0-4.962-2.937-9.456-7.481-11.448s-9.84-1.108-13.49 2.256l-39 35.941c-2.56 2.359-4.029 5.71-4.029 9.191 0 3.482 1.468 6.833 4.028 9.193l39.001 35.941c2.354 2.17 5.393 3.308 8.474 3.308 1.694 0 3.402-.345 5.016-1.052 4.545-1.992 7.481-6.486 7.481-11.448v-8.441h15.562v64.15h-2.5c-6.893 0-12.5 5.607-12.5 12.5v20c0 6.893 5.607 12.5 12.5 12.5h20c4.41 0 8.285-2.301 10.511-5.76l50.101 16.353c.773.252 1.558.372 2.328.372 3.158 0 6.096-2.01 7.129-5.175 1.285-3.938-.865-8.172-4.803-9.457l-51.61-16.846 54.368-17.622 83.414 26.944v24.07h-2.5c-4.954 0-9.231 2.904-11.253 7.093l-38.849-12.681c-3.944-1.287-8.172.866-9.457 4.803-1.285 3.938.865 8.172 4.803 9.457l42.256 13.793v10.035c0 6.893 5.607 12.5 12.5 12.5h20c6.893 0 12.5-5.607 12.5-12.5v-10.035l125.928-41.104c2.226 3.459 6.101 5.76 10.511 5.76h20c6.893 0 12.5-5.607 12.5-12.5v-20c0-6.893-5.607-12.5-12.5-12.5h-2.5v-63.15h15.561v7.441c0 4.962 2.937 9.456 7.481 11.448 1.613.708 3.32 1.052 5.016 1.052 3.08 0 6.12-1.138 8.475-3.308l39-35.942c2.561-2.36 4.028-5.71 4.028-9.192 0-3.481-1.469-6.832-4.028-9.191zm-90.534-117.829h15v15h-15zm-168.938-55.508h15v15h-15zm15 30h2.5c5.152 0 9.584-3.134 11.495-7.595l123.789 40.405-124.071 40.214c-2.038-4.143-6.291-7.009-11.212-7.009h-2.5v-66.015zm-29.188 102.909c1.784 4.729 6.343 8.107 11.688 8.107h2.5v25.438l-59.085-19.043zm-61.722 24.838 75.91 24.466v56.026l-75.91 24.604zm90.91 96.261 59.056 19.142-59.056 19.075zm0-112.992h2.5c5.345 0 9.904-3.378 11.688-8.107l45.229 14.609-59.417 18.966zm-15-30h15v15h-15zm-168.938-55.508h15v15h-15zm-18.062 139.521c-6.893 0-12.5 5.607-12.5 12.5v5.238l-32.812-30.238 32.812-30.238v4.238c0 6.893 5.607 12.5 12.5 12.5h51.5v26zm33.062 15h20.938c6.893 0 12.5-5.607 12.5-12.5v-31c0-6.893-5.607-12.5-12.5-12.5h-20.938v-68.521h2.5c5.164 0 9.605-3.148 11.509-7.624l123.434 40.008-69.221 22.359c-3.096 1-5.194 3.883-5.194 7.137v120.319l-48.475 15.712c-1.44-5.313-6.291-9.238-12.053-9.238h-2.5zm0 94.15h-15v-15h15zm94.882-31.03 59.056-19.142v38.217zm74.056 34.839 83.414-26.944 54.368 17.622-124.03 40.484c-2.021-4.189-6.299-7.093-11.253-7.093h-2.5v-24.069zm0 54.07h-15v-15h15zm168.938-57.879h-15v-15h15zm-15-30h-2.5c-5.763 0-10.614 3.925-12.053 9.238l-48.475-15.712v-37.836c0-4.142-3.357-7.5-7.5-7.5s-7.5 3.358-7.5 7.5v32.974l-75.91-24.604v-56.009l75.91-24.231v36.508c0 4.142 3.357 7.5 7.5 7.5s7.5-3.358 7.5-7.5v-47.121c0-3.254-2.099-6.137-5.194-7.137l-69.22-22.359 123.434-40.008c1.904 4.477 6.345 7.624 11.509 7.624h2.5v69.523h-20.939c-6.893 0-12.5 5.607-12.5 12.5v31c0 6.893 5.607 12.5 12.5 12.5h20.938zm45.562-61.412v-4.238c0-6.893-5.607-12.5-12.5-12.5h-51.5v-26h51.5c6.893 0 12.5-5.607 12.5-12.5v-5.238l32.812 30.238z"/></svg>