<svg id="Capa_1" enable-background="new 0 0 512 512" height="512" viewBox="0 0 512 512" width="512" xmlns="http://www.w3.org/2000/svg"><g><path d="m383.154 66.941c4.143 0 7.5-3.357 7.5-7.5s-3.357-7.5-7.5-7.5h-9.159c-4.143 0-7.5 3.357-7.5 7.5s3.357 7.5 7.5 7.5z"/><path d="m418.086 66.941c4.143 0 7.5-3.357 7.5-7.5s-3.357-7.5-7.5-7.5h-9.159c-4.143 0-7.5 3.357-7.5 7.5s3.357 7.5 7.5 7.5z"/><path d="m453.018 66.941c4.143 0 7.5-3.357 7.5-7.5s-3.357-7.5-7.5-7.5h-9.158c-4.143 0-7.5 3.357-7.5 7.5s3.357 7.5 7.5 7.5z"/><path d="m263.5 431.662v-7.252c0-4.143-3.358-7.5-7.5-7.5s-7.5 3.357-7.5 7.5v7.252c0 4.143 3.358 7.5 7.5 7.5s7.5-3.358 7.5-7.5z"/><path d="m493.872 25.065h-403.086c-4.142 0-7.5 3.357-7.5 7.5s3.358 7.5 7.5 7.5h403.086c1.725 0 3.128 1.403 3.128 3.128v35.624h-341.032c-.152 0-.289-.091-.348-.231l-3.477-8.328c-2.397-5.743-7.967-9.454-14.19-9.454h-65.815c-6.223 0-11.792 3.711-14.189 9.453l-3.478 8.329c-.059.141-.195.231-.348.231h-39.123v-35.624c0-1.725 1.403-3.128 3.128-3.128h42.67c4.142 0 7.5-3.357 7.5-7.5s-3.358-7.5-7.5-7.5h-42.67c-9.996 0-18.128 8.132-18.128 18.128v331.241c0 9.996 8.132 18.129 18.128 18.129h189.314c2.778 9.051 3.533 18.163 2.242 27.151-.589 4.101 2.257 7.901 6.357 8.49 4.102.585 7.901-2.258 8.49-6.357 1.399-9.74.884-19.551-1.527-29.284h65.978c-5.58 22.379-1.061 44.797 13.48 66.927-30.905-3.83-62.029-3.829-92.932.001 1.079-1.642 2.101-3.281 3.064-4.918 2.102-3.569.912-8.167-2.657-10.269s-8.167-.912-10.269 2.657c-3.073 5.219-6.849 10.51-11.241 15.757-13.53 2.437-27.038 5.606-40.51 9.51-3.979 1.153-6.27 5.312-5.117 9.291s5.313 6.266 9.291 5.117c68.948-19.977 138.866-19.977 207.814 0 .697.201 1.399.298 2.091.298 3.253 0 6.249-2.134 7.2-5.415 1.152-3.979-1.139-8.138-5.117-9.291-13.473-3.903-26.982-7.073-40.512-9.51-19.968-23.82-26.218-46.841-19.018-70.155h189.321c9.996 0 18.128-8.133 18.128-18.129v-85.993c0-4.143-3.357-7.5-7.5-7.5s-7.5 3.357-7.5 7.5v85.993c0 1.726-1.403 3.129-3.128 3.129h-475.742c-1.725 0-3.128-1.403-3.128-3.129v-280.617h39.123c6.222 0 11.792-3.71 14.189-9.452l3.478-8.33c.059-.141.195-.231.347-.231h65.816c.152 0 .289.091.348.232l3.478 8.329c2.397 5.742 7.967 9.452 14.189 9.452h341.032v164.637c0 4.143 3.357 7.5 7.5 7.5s7.5-3.357 7.5-7.5v-215.261c0-9.996-8.132-18.128-18.128-18.128z"/><path d="m429.206 161.456v-31.741c0-6.562-5.338-11.899-11.899-11.899h-97.291c-6.562 0-11.899 5.338-11.899 11.899v31.741c0 6.562 5.338 11.899 11.899 11.899h97.291c6.561 0 11.899-5.338 11.899-11.899zm-15-3.101h-91.09v-25.54h91.09z"/><path d="m81.234 111.473c-3.179-2.656-7.908-2.232-10.564.945l-20.319 24.313c-2.327 2.784-2.327 6.835 0 9.619l20.319 24.313c1.483 1.774 3.613 2.69 5.759 2.69 1.696 0 3.402-.572 4.806-1.745 3.178-2.656 3.602-7.386.945-10.564l-16.3-19.502 16.299-19.504c2.657-3.179 2.234-7.908-.945-10.565z"/><path d="m135.908 171.61c1.404 1.173 3.109 1.745 4.806 1.745 2.145 0 4.275-.916 5.759-2.69l20.319-24.313c2.327-2.784 2.327-6.835 0-9.619l-20.319-24.313c-2.656-3.177-7.386-3.602-10.564-.945s-3.602 7.386-.945 10.564l16.299 19.504-16.299 19.504c-2.658 3.177-2.235 7.907.944 10.563z"/><path d="m95.437 185.532c.716.214 1.438.315 2.148.315 3.229 0 6.212-2.104 7.184-5.356l21.977-73.606c1.185-3.969-1.072-8.146-5.041-9.332-3.972-1.189-8.147 1.071-9.332 5.041l-21.977 73.606c-1.185 3.969 1.072 8.146 5.041 9.332z"/><path d="m82.636 210.249h-26.53c-4.142 0-7.5 3.357-7.5 7.5s3.358 7.5 7.5 7.5h26.53c4.142 0 7.5-3.357 7.5-7.5s-3.358-7.5-7.5-7.5z"/><path d="m101.92 217.749c0 4.143 3.358 7.5 7.5 7.5h116.53c4.142 0 7.5-3.357 7.5-7.5s-3.358-7.5-7.5-7.5h-116.53c-4.142 0-7.5 3.357-7.5 7.5z"/><path d="m245.235 217.749c0 4.143 3.358 7.5 7.5 7.5h66.53c4.143 0 7.5-3.357 7.5-7.5s-3.357-7.5-7.5-7.5h-66.53c-4.142 0-7.5 3.357-7.5 7.5z"/><path d="m402.58 210.249h-56.53c-4.143 0-7.5 3.357-7.5 7.5s3.357 7.5 7.5 7.5h56.53c4.143 0 7.5-3.357 7.5-7.5s-3.358-7.5-7.5-7.5z"/><path d="m455.894 210.249h-26.53c-4.143 0-7.5 3.357-7.5 7.5s3.357 7.5 7.5 7.5h26.53c4.143 0 7.5-3.357 7.5-7.5s-3.357-7.5-7.5-7.5z"/><path d="m82.636 241.649h-26.53c-4.142 0-7.5 3.357-7.5 7.5s3.358 7.5 7.5 7.5h26.53c4.142 0 7.5-3.357 7.5-7.5s-3.358-7.5-7.5-7.5z"/><path d="m109.42 256.649h26.53c4.142 0 7.5-3.357 7.5-7.5s-3.358-7.5-7.5-7.5h-26.53c-4.142 0-7.5 3.357-7.5 7.5s3.358 7.5 7.5 7.5z"/><path d="m155.235 249.149c0 4.143 3.358 7.5 7.5 7.5h126.53c4.143 0 7.5-3.357 7.5-7.5s-3.357-7.5-7.5-7.5h-126.53c-4.142 0-7.5 3.358-7.5 7.5z"/><path d="m410.08 249.149c0-4.143-3.357-7.5-7.5-7.5h-86.53c-4.143 0-7.5 3.357-7.5 7.5s3.357 7.5 7.5 7.5h86.53c4.142 0 7.5-3.357 7.5-7.5z"/><path d="m455.894 241.649h-26.53c-4.143 0-7.5 3.357-7.5 7.5s3.357 7.5 7.5 7.5h26.53c4.143 0 7.5-3.357 7.5-7.5s-3.357-7.5-7.5-7.5z"/><path d="m82.636 273.049h-26.53c-4.142 0-7.5 3.357-7.5 7.5s3.358 7.5 7.5 7.5h26.53c4.142 0 7.5-3.357 7.5-7.5s-3.358-7.5-7.5-7.5z"/><path d="m109.42 288.049h86.53c4.142 0 7.5-3.357 7.5-7.5s-3.358-7.5-7.5-7.5h-86.53c-4.142 0-7.5 3.357-7.5 7.5s3.358 7.5 7.5 7.5z"/><path d="m316.765 280.549c0-4.143-3.357-7.5-7.5-7.5h-86.53c-4.142 0-7.5 3.357-7.5 7.5s3.358 7.5 7.5 7.5h86.53c4.143 0 7.5-3.358 7.5-7.5z"/><path d="m370.08 280.549c0-4.143-3.357-7.5-7.5-7.5h-26.53c-4.143 0-7.5 3.357-7.5 7.5s3.357 7.5 7.5 7.5h26.53c4.142 0 7.5-3.358 7.5-7.5z"/><path d="m455.894 273.049h-66.53c-4.143 0-7.5 3.357-7.5 7.5s3.357 7.5 7.5 7.5h66.53c4.143 0 7.5-3.357 7.5-7.5s-3.357-7.5-7.5-7.5z"/><path d="m82.636 304.449h-26.53c-4.142 0-7.5 3.357-7.5 7.5s3.358 7.5 7.5 7.5h26.53c4.142 0 7.5-3.357 7.5-7.5s-3.358-7.5-7.5-7.5z"/><path d="m233.451 311.949c0-4.143-3.358-7.5-7.5-7.5h-116.531c-4.142 0-7.5 3.357-7.5 7.5s3.358 7.5 7.5 7.5h116.53c4.143 0 7.501-3.357 7.501-7.5z"/><path d="m252.735 319.449h26.53c4.143 0 7.5-3.357 7.5-7.5s-3.357-7.5-7.5-7.5h-26.53c-4.142 0-7.5 3.357-7.5 7.5s3.358 7.5 7.5 7.5z"/><path d="m306.049 319.449h26.53c4.143 0 7.5-3.357 7.5-7.5s-3.357-7.5-7.5-7.5h-26.53c-4.143 0-7.5 3.357-7.5 7.5s3.358 7.5 7.5 7.5z"/><path d="m455.894 304.449h-96.53c-4.143 0-7.5 3.357-7.5 7.5s3.357 7.5 7.5 7.5h96.53c4.143 0 7.5-3.357 7.5-7.5s-3.357-7.5-7.5-7.5z"/><path d="m82.636 335.848h-26.53c-4.142 0-7.5 3.357-7.5 7.5s3.358 7.5 7.5 7.5h26.53c4.142 0 7.5-3.357 7.5-7.5s-3.358-7.5-7.5-7.5z"/><path d="m109.42 335.848c-4.142 0-7.5 3.357-7.5 7.5s3.358 7.5 7.5 7.5h76.53c4.142 0 7.5-3.357 7.5-7.5s-3.358-7.5-7.5-7.5z"/><path d="m212.735 350.848h26.53c4.142 0 7.5-3.357 7.5-7.5s-3.358-7.5-7.5-7.5h-26.53c-4.142 0-7.5 3.357-7.5 7.5s3.358 7.5 7.5 7.5z"/><path d="m266.049 350.848h86.53c4.143 0 7.5-3.357 7.5-7.5s-3.357-7.5-7.5-7.5h-86.53c-4.143 0-7.5 3.357-7.5 7.5s3.358 7.5 7.5 7.5z"/><path d="m455.894 335.848h-76.53c-4.143 0-7.5 3.357-7.5 7.5s3.357 7.5 7.5 7.5h76.53c4.143 0 7.5-3.357 7.5-7.5s-3.357-7.5-7.5-7.5z"/></g></svg>